<?xml version="1.0" encoding="utf-8"?>
<!-- Generator: Adobe Illustrator 23.0.1, SVG Export Plug-In . SVG Version: 6.00 Build 0)  -->
<svg version="1.1" id="Layer_1" xmlns="http://www.w3.org/2000/svg" xmlns:xlink="http://www.w3.org/1999/xlink" x="0px" y="0px"
	 viewBox="0 0 120 150" style="enable-background:new 0 0 120 150;" xml:space="preserve">
<style type="text/css">
	.st0{fill-rule:evenodd;clip-rule:evenodd;fill:#FFFFFF;}
</style>
<path class="st0" d="M2.7,85c-2.9-12.7,2.4-19.1,8.5-22.1c6.1-3,13.9,0.5,21.3,1.5c0.2,16.1-0.4,38.9,2.1,57.3
	c-6.1-3.1-11.2-6.5-14.3-9.3C12.7,105.7,5.6,97.7,2.7,85L2.7,85z M45.2,35c-2,0-3.5,0-5.5,0c-10.5-15.3,1.3-21.3,2.6-32.2
	C53.7,18.7,49.2,29.3,45.2,35L45.2,35z M49.4,66.1H35.3l4.7-28.8h5L49.4,66.1L49.4,66.1z M35.1,68.8c4.8,0,9.5,0,14.3,0
	c-0.2,10.7-0.2,65.1-6.5,78.4C35,135.9,35,83.4,35.1,68.8L35.1,68.8z M50.3,54.4l1.5,11.8l0,4.8c5.7,0.7,11.5,4.9,11.5,9.7
	c0,4.8-5.9,8.5-12,8.9l-0.2,11.5c2.9,1.6,5.5,4.2,5.5,8c0,3.8-2.7,7.6-6.3,8.8c-0.4,3.4-0.8,6.7-1.2,9.8c5,1.6,10.1,2.7,14.9,3
	c16.4,1,32.4-3.7,43-13.8c10.7-10.2,12.5-26.6,10.3-39c-2.2-12.4-9-21.5-19.6-31c-10.5-9.5-29.8-9.7-36.9-5.4
	C53.7,45.8,51.9,51.6,50.3,54.4L50.3,54.4z M76,49.3c5.1,0,9.3,4.2,9.3,9.3S81.1,68,76,68c-5.1,0-9.3-4.2-9.3-9.3S70.8,49.3,76,49.3
	L76,49.3z M95.2,73.6c5.1,0,9.3,4.2,9.3,9.3c0,5.1-4.2,9.3-9.3,9.3c-5.1,0-9.3-4.2-9.3-9.3C85.9,77.8,90.1,73.6,95.2,73.6L95.2,73.6
	z M80.6,102c5.1,0,9.3,4.2,9.3,9.3c0,5.1-4.2,9.3-9.3,9.3c-5.1,0-9.3-4.2-9.3-9.3C71.3,106.2,75.4,102,80.6,102L80.6,102z M21,73.6
	c-5.1,0-9.3,4.2-9.3,9.3c0,5.1,4.2,9.3,9.3,9.3s9.3-4.2,9.3-9.3C30.3,77.8,26.2,73.6,21,73.6z"/>
</svg>
